solid ascii
  facet normal 9.215408e-004 -9.396984e-017 -9.999996e-001
    outer loop
      vertex   1.300000e+001 -8.187500e+000 -8.741914e-017
      vertex   1.295000e+001 -8.187500e+000 -4.607704e-005
      vertex   1.300000e+001 -7.187500e+000 -1.748383e-016
    endloop
  endfacet
  facet normal 9.215408e-004 2.204605e-017 -9.999996e-001
    outer loop
      vertex   1.300000e+001 -7.187500e+000 -1.748383e-016
      vertex   1.295000e+001 -8.187500e+000 -4.607704e-005
      vertex   1.295000e+001 -7.187500e+000 -4.607704e-005
    endloop
  endfacet
  facet normal -7.077581e-001 1.231654e-015 7.064549e-001
    outer loop
      vertex   1.295000e+001 -8.187500e+000 -4.607704e-005
      vertex   1.302065e+001 -8.187500e+000 7.072973e-002
      vertex   1.295000e+001 -7.187500e+000 -4.607704e-005
    endloop
  endfacet
  facet normal -7.077581e-001 1.247427e-015 7.064549e-001
    outer loop
      vertex   1.295000e+001 -7.187500e+000 -4.607704e-005
      vertex   1.302065e+001 -8.187500e+000 7.072973e-002
      vertex   1.302065e+001 -7.187500e+000 7.072973e-002
    endloop
  endfacet
  facet normal -9.215408e-004 -1.222831e-017 9.999996e-001
    outer loop
      vertex   1.302065e+001 -8.187500e+000 7.072973e-002
      vertex   1.329993e+001 -8.187500e+000 7.098711e-002
      vertex   1.302065e+001 -7.187500e+000 7.072973e-002
    endloop
  endfacet
  facet normal -9.215408e-004 -2.448159e-017 9.999996e-001
    outer loop
      vertex   1.302065e+001 -7.187500e+000 7.072973e-002
      vertex   1.329993e+001 -8.187500e+000 7.098711e-002
      vertex   1.329993e+001 -7.187500e+000 7.098711e-002
    endloop
  endfacet
  facet normal -5.527956e-001 1.001587e-015 8.333169e-001
    outer loop
      vertex   1.172577e+001 -8.187500e+000 -1.112384e+000
      vertex   1.209525e+001 -8.187500e+000 -8.672828e-001
      vertex   1.172577e+001 -7.187500e+000 -1.112384e+000
    endloop
  endfacet
  facet normal -5.527956e-001 1.963924e-015 8.333169e-001
    outer loop
      vertex   1.172577e+001 -7.187500e+000 -1.112384e+000
      vertex   1.209525e+001 -8.187500e+000 -8.672828e-001
      vertex   1.209525e+001 -7.187500e+000 -8.672828e-001
    endloop
  endfacet
  facet normal 9.999996e-001 -1.776375e-015 9.215408e-004
    outer loop
      vertex   1.172550e+001 -8.187500e+000 -8.197773e-001
      vertex   1.172577e+001 -8.187500e+000 -1.112384e+000
      vertex   1.172550e+001 -7.187500e+000 -8.197773e-001
    endloop
  endfacet
  facet normal 9.999996e-001 -1.776356e-015 9.215408e-004
    outer loop
      vertex   1.172550e+001 -7.187500e+000 -8.197773e-001
      vertex   1.172577e+001 -8.187500e+000 -1.112384e+000
      vertex   1.172577e+001 -7.187500e+000 -1.112384e+000
    endloop
  endfacet
  facet normal 7.857196e-001 -1.394827e-015 -6.185828e-001
    outer loop
      vertex   1.209477e+001 -8.187500e+000 -3.507277e-001
      vertex   1.172550e+001 -8.187500e+000 -8.197773e-001
      vertex   1.209477e+001 -7.187500e+000 -3.507277e-001
    endloop
  endfacet
  facet normal 7.857196e-001 -1.395718e-015 -6.185828e-001
    outer loop
      vertex   1.209477e+001 -7.187500e+000 -3.507277e-001
      vertex   1.172550e+001 -8.187500e+000 -8.197773e-001
      vertex   1.172550e+001 -7.187500e+000 -8.197773e-001
    endloop
  endfacet
  facet normal -9.999996e-001 3.552716e-015 -9.215408e-004
    outer loop
      vertex   1.209525e+001 -8.187500e+000 -8.672828e-001
      vertex   1.209477e+001 -8.187500e+000 -3.507277e-001
      vertex   1.209525e+001 -7.187500e+000 -8.672828e-001
    endloop
  endfacet
  facet normal -9.999996e-001 1.776356e-015 -9.215408e-004
    outer loop
      vertex   1.209525e+001 -7.187500e+000 -8.672828e-001
      vertex   1.209477e+001 -8.187500e+000 -3.507277e-001
      vertex   1.209477e+001 -7.187500e+000 -3.507277e-001
    endloop
  endfacet
  facet normal -9.178310e-004 -8.963931e-002 9.959739e-001
    outer loop
      vertex   1.300000e+001 -7.669926e+000 -4.905443e-001
      vertex   1.300000e+001 -7.687500e+000 -4.921260e-001
      vertex   1.330045e+001 -7.687500e+000 -4.918491e-001
    endloop
  endfacet
  facet normal -9.178310e-004 -8.963931e-002 9.959739e-001
    outer loop
      vertex   1.330045e+001 -7.669926e+000 -4.902674e-001
      vertex   1.300000e+001 -7.669926e+000 -4.905443e-001
      vertex   1.330045e+001 -7.687500e+000 -4.918491e-001
    endloop
  endfacet
  facet normal -8.883311e-004 -2.660368e-001 9.639625e-001
    outer loop
      vertex   1.330045e+001 -7.669926e+000 -4.902674e-001
      vertex   1.300000e+001 -7.652916e+000 -4.858499e-001
      vertex   1.300000e+001 -7.669926e+000 -4.905443e-001
    endloop
  endfacet
  facet normal -8.883311e-004 -2.660368e-001 9.639625e-001
    outer loop
      vertex   1.330045e+001 -7.669926e+000 -4.902674e-001
      vertex   1.330045e+001 -7.652916e+000 -4.855731e-001
      vertex   1.300000e+001 -7.652916e+000 -4.858499e-001
    endloop
  endfacet
  facet normal -8.302796e-004 -4.338837e-001 9.009685e-001
    outer loop
      vertex   1.300000e+001 -7.652916e+000 -4.858499e-001
      vertex   1.330045e+001 -7.652916e+000 -4.855731e-001
      vertex   1.300000e+001 -7.637018e+000 -4.781938e-001
    endloop
  endfacet
  facet normal -8.302796e-004 -4.338837e-001 9.009685e-001
    outer loop
      vertex   1.300000e+001 -7.637018e+000 -4.781938e-001
      vertex   1.330045e+001 -7.652916e+000 -4.855731e-001
      vertex   1.330044e+001 -7.637018e+000 -4.779169e-001
    endloop
  endfacet
  facet normal -7.455422e-004 -5.877853e-001 8.090167e-001
    outer loop
      vertex   1.300000e+001 -7.622742e+000 -4.678220e-001
      vertex   1.330044e+001 -7.637018e+000 -4.779169e-001
      vertex   1.330043e+001 -7.622742e+000 -4.675452e-001
    endloop
  endfacet
  facet normal -6.368425e-004 -7.227949e-001 6.910624e-001
    outer loop
      vertex   1.300000e+001 -7.610548e+000 -4.550679e-001
      vertex   1.330043e+001 -7.622742e+000 -4.675452e-001
      vertex   1.330042e+001 -7.610548e+000 -4.547911e-001
    endloop
  endfacet
  facet normal -5.076741e-004 -8.345733e-001 5.508967e-001
    outer loop
      vertex   1.300000e+001 -7.600827e+000 -4.403414e-001
      vertex   1.330042e+001 -7.610548e+000 -4.547911e-001
      vertex   1.330041e+001 -7.600827e+000 -4.400646e-001
    endloop
  endfacet
  facet normal -3.621886e-004 -9.195278e-001 3.930249e-001
    outer loop
      vertex   1.300000e+001 -7.593892e+000 -4.241159e-001
      vertex   1.330041e+001 -7.600827e+000 -4.400646e-001
      vertex   1.330039e+001 -7.593892e+000 -4.238390e-001
    endloop
  endfacet
  facet normal -2.050621e-004 -9.749279e-001 2.225208e-001
    outer loop
      vertex   1.300000e+001 -7.589966e+000 -4.069127e-001
      vertex   1.330039e+001 -7.593892e+000 -4.238390e-001
      vertex   1.330037e+001 -7.589966e+000 -4.066359e-001
    endloop
  endfacet
  facet normal -4.134477e-005 -9.989931e-001 4.486481e-002
    outer loop
      vertex   1.300000e+001 -7.589174e+000 -3.892850e-001
      vertex   1.330037e+001 -7.589966e+000 -4.066359e-001
      vertex   1.330036e+001 -7.589174e+000 -3.890082e-001
    endloop
  endfacet
  facet normal 1.237014e-004 -9.909498e-001 -1.342332e-001
    outer loop
      vertex   1.300000e+001 -7.591543e+000 -3.717991e-001
      vertex   1.330036e+001 -7.589174e+000 -3.890082e-001
      vertex   1.330034e+001 -7.591543e+000 -3.715223e-001
    endloop
  endfacet
  facet normal 2.847718e-004 -9.510565e-001 -3.090169e-001
    outer loop
      vertex   1.300000e+001 -7.596995e+000 -3.550172e-001
      vertex   1.330034e+001 -7.591543e+000 -3.715223e-001
      vertex   1.330033e+001 -7.596995e+000 -3.547404e-001
    endloop
  endfacet
  facet normal 4.366893e-004 -8.805955e-001 -4.738685e-001
    outer loop
      vertex   1.300000e+001 -7.605357e+000 -3.394786e-001
      vertex   1.330033e+001 -7.596995e+000 -3.547404e-001
      vertex   1.330031e+001 -7.605357e+000 -3.392019e-001
    endloop
  endfacet
  facet normal 5.745713e-004 -7.818315e-001 -6.234895e-001
    outer loop
      vertex   1.300000e+001 -7.616359e+000 -3.256828e-001
      vertex   1.330031e+001 -7.605357e+000 -3.392019e-001
      vertex   1.330030e+001 -7.616359e+000 -3.254060e-001
    endloop
  endfacet
  facet normal 6.939861e-004 -6.579387e-001 -7.530711e-001
    outer loop
      vertex   1.300000e+001 -7.629647e+000 -3.140731e-001
      vertex   1.330030e+001 -7.616359e+000 -3.254060e-001
      vertex   1.330029e+001 -7.629647e+000 -3.137964e-001
    endloop
  endfacet
  facet normal 7.910956e-004 -5.128993e-001 -8.584484e-001
    outer loop
      vertex   1.300000e+001 -7.644795e+000 -3.050227e-001
      vertex   1.330029e+001 -7.629647e+000 -3.137964e-001
      vertex   1.330028e+001 -7.644795e+000 -3.047460e-001
    endloop
  endfacet
  facet normal 8.627787e-004 -3.513748e-001 -9.362345e-001
    outer loop
      vertex   1.300000e+001 -7.661315e+000 -2.988225e-001
      vertex   1.330028e+001 -7.644795e+000 -3.047460e-001
      vertex   1.330028e+001 -7.661315e+000 -2.985458e-001
    endloop
  endfacet
  facet normal 9.067313e-004 -1.785569e-001 -9.839292e-001
    outer loop
      vertex   1.300000e+001 -7.678677e+000 -2.956718e-001
      vertex   1.330028e+001 -7.661315e+000 -2.985458e-001
      vertex   1.330027e+001 -7.678677e+000 -2.953951e-001
    endloop
  endfacet
  facet normal 9.215408e-004 0.000000e+000 -9.999996e-001
    outer loop
      vertex   1.300000e+001 -7.696323e+000 -2.956718e-001
      vertex   1.330027e+001 -7.678677e+000 -2.953951e-001
      vertex   1.330027e+001 -7.696323e+000 -2.953951e-001
    endloop
  endfacet
  facet normal 9.067313e-004 1.785569e-001 -9.839292e-001
    outer loop
      vertex   1.330028e+001 -7.713685e+000 -2.985458e-001
      vertex   1.300000e+001 -7.696323e+000 -2.956718e-001
      vertex   1.330027e+001 -7.696323e+000 -2.953951e-001
    endloop
  endfacet
  facet normal 9.067313e-004 1.785569e-001 -9.839292e-001
    outer loop
      vertex   1.330028e+001 -7.713685e+000 -2.985458e-001
      vertex   1.300000e+001 -7.713685e+000 -2.988225e-001
      vertex   1.300000e+001 -7.696323e+000 -2.956718e-001
    endloop
  endfacet
  facet normal 8.627787e-004 3.513748e-001 -9.362345e-001
    outer loop
      vertex   1.330028e+001 -7.713685e+000 -2.985458e-001
      vertex   1.330028e+001 -7.730205e+000 -3.047460e-001
      vertex   1.300000e+001 -7.713685e+000 -2.988225e-001
    endloop
  endfacet
  facet normal 8.627787e-004 3.513748e-001 -9.362345e-001
    outer loop
      vertex   1.300000e+001 -7.713685e+000 -2.988225e-001
      vertex   1.330028e+001 -7.730205e+000 -3.047460e-001
      vertex   1.300000e+001 -7.730205e+000 -3.050227e-001
    endloop
  endfacet
  facet normal 7.910956e-004 5.128993e-001 -8.584484e-001
    outer loop
      vertex   1.300000e+001 -7.730205e+000 -3.050227e-001
      vertex   1.330028e+001 -7.730205e+000 -3.047460e-001
      vertex   1.330029e+001 -7.745353e+000 -3.137964e-001
    endloop
  endfacet
  facet normal 6.939861e-004 6.579387e-001 -7.530711e-001
    outer loop
      vertex   1.300000e+001 -7.745353e+000 -3.140731e-001
      vertex   1.330029e+001 -7.745353e+000 -3.137964e-001
      vertex   1.330030e+001 -7.758641e+000 -3.254060e-001
    endloop
  endfacet
  facet normal 5.745713e-004 7.818315e-001 -6.234895e-001
    outer loop
      vertex   1.300000e+001 -7.758641e+000 -3.256828e-001
      vertex   1.330030e+001 -7.758641e+000 -3.254060e-001
      vertex   1.330031e+001 -7.769643e+000 -3.392019e-001
    endloop
  endfacet
  facet normal 4.366893e-004 8.805955e-001 -4.738685e-001
    outer loop
      vertex   1.300000e+001 -7.769643e+000 -3.394786e-001
      vertex   1.330031e+001 -7.769643e+000 -3.392019e-001
      vertex   1.330033e+001 -7.778005e+000 -3.547404e-001
    endloop
  endfacet
  facet normal 2.847718e-004 9.510565e-001 -3.090169e-001
    outer loop
      vertex   1.300000e+001 -7.778005e+000 -3.550172e-001
      vertex   1.330033e+001 -7.778005e+000 -3.547404e-001
      vertex   1.330034e+001 -7.783457e+000 -3.715223e-001
    endloop
  endfacet
  facet normal 1.237014e-004 9.909498e-001 -1.342332e-001
    outer loop
      vertex   1.300000e+001 -7.783457e+000 -3.717991e-001
      vertex   1.330034e+001 -7.783457e+000 -3.715223e-001
      vertex   1.330036e+001 -7.785826e+000 -3.890082e-001
    endloop
  endfacet
  facet normal -4.134477e-005 9.989931e-001 4.486481e-002
    outer loop
      vertex   1.300000e+001 -7.785826e+000 -3.892850e-001
      vertex   1.330036e+001 -7.785826e+000 -3.890082e-001
      vertex   1.330037e+001 -7.785034e+000 -4.066359e-001
    endloop
  endfacet
  facet normal -2.050621e-004 9.749279e-001 2.225208e-001
    outer loop
      vertex   1.300000e+001 -7.785034e+000 -4.069127e-001
      vertex   1.330037e+001 -7.785034e+000 -4.066359e-001
      vertex   1.330039e+001 -7.781108e+000 -4.238390e-001
    endloop
  endfacet
  facet normal -3.621886e-004 9.195278e-001 3.930249e-001
    outer loop
      vertex   1.300000e+001 -7.781108e+000 -4.241159e-001
      vertex   1.330039e+001 -7.781108e+000 -4.238390e-001
      vertex   1.330041e+001 -7.774173e+000 -4.400646e-001
    endloop
  endfacet
  facet normal -5.076741e-004 8.345733e-001 5.508967e-001
    outer loop
      vertex   1.300000e+001 -7.774173e+000 -4.403414e-001
      vertex   1.330041e+001 -7.774173e+000 -4.400646e-001
      vertex   1.330042e+001 -7.764452e+000 -4.547911e-001
    endloop
  endfacet
  facet normal -6.368425e-004 7.227949e-001 6.910624e-001
    outer loop
      vertex   1.300000e+001 -7.764452e+000 -4.550679e-001
      vertex   1.330042e+001 -7.764452e+000 -4.547911e-001
      vertex   1.330043e+001 -7.752258e+000 -4.675452e-001
    endloop
  endfacet
  facet normal -7.455422e-004 5.877853e-001 8.090167e-001
    outer loop
      vertex   1.300000e+001 -7.752258e+000 -4.678220e-001
      vertex   1.330043e+001 -7.752258e+000 -4.675452e-001
      vertex   1.330044e+001 -7.737982e+000 -4.779169e-001
    endloop
  endfacet
  facet normal -8.302796e-004 4.338837e-001 9.009685e-001
    outer loop
      vertex   1.300000e+001 -7.737982e+000 -4.781938e-001
      vertex   1.330044e+001 -7.737982e+000 -4.779169e-001
      vertex   1.330045e+001 -7.722084e+000 -4.855731e-001
    endloop
  endfacet
  facet normal -8.883311e-004 2.660368e-001 9.639625e-001
    outer loop
      vertex   1.300000e+001 -7.722084e+000 -4.858499e-001
      vertex   1.330045e+001 -7.722084e+000 -4.855731e-001
      vertex   1.330045e+001 -7.705074e+000 -4.902674e-001
    endloop
  endfacet
  facet normal -9.178310e-004 8.963931e-002 9.959739e-001
    outer loop
      vertex   1.300000e+001 -7.705074e+000 -4.905443e-001
      vertex   1.330045e+001 -7.705074e+000 -4.902674e-001
      vertex   1.330045e+001 -7.687500e+000 -4.918491e-001
    endloop
  endfacet
  facet normal -9.178310e-004 8.963931e-002 9.959739e-001
    outer loop
      vertex   1.300000e+001 -7.687500e+000 -4.921260e-001
      vertex   1.300000e+001 -7.705074e+000 -4.905443e-001
      vertex   1.330045e+001 -7.687500e+000 -4.918491e-001
    endloop
  endfacet
  facet normal -8.883311e-004 2.660368e-001 9.639625e-001
    outer loop
      vertex   1.300000e+001 -7.705074e+000 -4.905443e-001
      vertex   1.300000e+001 -7.722084e+000 -4.858499e-001
      vertex   1.330045e+001 -7.705074e+000 -4.902674e-001
    endloop
  endfacet
  facet normal -8.302796e-004 4.338837e-001 9.009685e-001
    outer loop
      vertex   1.300000e+001 -7.722084e+000 -4.858499e-001
      vertex   1.300000e+001 -7.737982e+000 -4.781938e-001
      vertex   1.330045e+001 -7.722084e+000 -4.855731e-001
    endloop
  endfacet
  facet normal -7.455422e-004 5.877853e-001 8.090167e-001
    outer loop
      vertex   1.300000e+001 -7.737982e+000 -4.781938e-001
      vertex   1.300000e+001 -7.752258e+000 -4.678220e-001
      vertex   1.330044e+001 -7.737982e+000 -4.779169e-001
    endloop
  endfacet
  facet normal -6.368425e-004 7.227949e-001 6.910624e-001
    outer loop
      vertex   1.300000e+001 -7.752258e+000 -4.678220e-001
      vertex   1.300000e+001 -7.764452e+000 -4.550679e-001
      vertex   1.330043e+001 -7.752258e+000 -4.675452e-001
    endloop
  endfacet
  facet normal -5.076741e-004 8.345733e-001 5.508967e-001
    outer loop
      vertex   1.300000e+001 -7.764452e+000 -4.550679e-001
      vertex   1.300000e+001 -7.774173e+000 -4.403414e-001
      vertex   1.330042e+001 -7.764452e+000 -4.547911e-001
    endloop
  endfacet
  facet normal -3.621886e-004 9.195278e-001 3.930249e-001
    outer loop
      vertex   1.300000e+001 -7.774173e+000 -4.403414e-001
      vertex   1.300000e+001 -7.781108e+000 -4.241159e-001
      vertex   1.330041e+001 -7.774173e+000 -4.400646e-001
    endloop
  endfacet
  facet normal -2.050621e-004 9.749279e-001 2.225208e-001
    outer loop
      vertex   1.300000e+001 -7.781108e+000 -4.241159e-001
      vertex   1.300000e+001 -7.785034e+000 -4.069127e-001
      vertex   1.330039e+001 -7.781108e+000 -4.238390e-001
    endloop
  endfacet
  facet normal -4.134477e-005 9.989931e-001 4.486481e-002
    outer loop
      vertex   1.300000e+001 -7.785034e+000 -4.069127e-001
      vertex   1.300000e+001 -7.785826e+000 -3.892850e-001
      vertex   1.330037e+001 -7.785034e+000 -4.066359e-001
    endloop
  endfacet
  facet normal 1.237014e-004 9.909498e-001 -1.342332e-001
    outer loop
      vertex   1.300000e+001 -7.785826e+000 -3.892850e-001
      vertex   1.300000e+001 -7.783457e+000 -3.717991e-001
      vertex   1.330036e+001 -7.785826e+000 -3.890082e-001
    endloop
  endfacet
  facet normal 2.847718e-004 9.510565e-001 -3.090169e-001
    outer loop
      vertex   1.300000e+001 -7.783457e+000 -3.717991e-001
      vertex   1.300000e+001 -7.778005e+000 -3.550172e-001
      vertex   1.330034e+001 -7.783457e+000 -3.715223e-001
    endloop
  endfacet
  facet normal 4.366893e-004 8.805955e-001 -4.738685e-001
    outer loop
      vertex   1.300000e+001 -7.778005e+000 -3.550172e-001
      vertex   1.300000e+001 -7.769643e+000 -3.394786e-001
      vertex   1.330033e+001 -7.778005e+000 -3.547404e-001
    endloop
  endfacet
  facet normal 5.745713e-004 7.818315e-001 -6.234895e-001
    outer loop
      vertex   1.300000e+001 -7.769643e+000 -3.394786e-001
      vertex   1.300000e+001 -7.758641e+000 -3.256828e-001
      vertex   1.330031e+001 -7.769643e+000 -3.392019e-001
    endloop
  endfacet
  facet normal 6.939861e-004 6.579387e-001 -7.530711e-001
    outer loop
      vertex   1.300000e+001 -7.758641e+000 -3.256828e-001
      vertex   1.300000e+001 -7.745353e+000 -3.140731e-001
      vertex   1.330030e+001 -7.758641e+000 -3.254060e-001
    endloop
  endfacet
  facet normal 7.910956e-004 5.128993e-001 -8.584484e-001
    outer loop
      vertex   1.300000e+001 -7.745353e+000 -3.140731e-001
      vertex   1.300000e+001 -7.730205e+000 -3.050227e-001
      vertex   1.330029e+001 -7.745353e+000 -3.137964e-001
    endloop
  endfacet
  facet normal 9.215408e-004 0.000000e+000 -9.999996e-001
    outer loop
      vertex   1.300000e+001 -7.696323e+000 -2.956718e-001
      vertex   1.300000e+001 -7.678677e+000 -2.956718e-001
      vertex   1.330027e+001 -7.678677e+000 -2.953951e-001
    endloop
  endfacet
  facet normal 9.067313e-004 -1.785569e-001 -9.839292e-001
    outer loop
      vertex   1.300000e+001 -7.678677e+000 -2.956718e-001
      vertex   1.300000e+001 -7.661315e+000 -2.988225e-001
      vertex   1.330028e+001 -7.661315e+000 -2.985458e-001
    endloop
  endfacet
  facet normal 8.627787e-004 -3.513748e-001 -9.362345e-001
    outer loop
      vertex   1.300000e+001 -7.661315e+000 -2.988225e-001
      vertex   1.300000e+001 -7.644795e+000 -3.050227e-001
      vertex   1.330028e+001 -7.644795e+000 -3.047460e-001
    endloop
  endfacet
  facet normal 7.910956e-004 -5.128993e-001 -8.584484e-001
    outer loop
      vertex   1.300000e+001 -7.644795e+000 -3.050227e-001
      vertex   1.300000e+001 -7.629647e+000 -3.140731e-001
      vertex   1.330029e+001 -7.629647e+000 -3.137964e-001
    endloop
  endfacet
  facet normal 6.939861e-004 -6.579387e-001 -7.530711e-001
    outer loop
      vertex   1.300000e+001 -7.629647e+000 -3.140731e-001
      vertex   1.300000e+001 -7.616359e+000 -3.256828e-001
      vertex   1.330030e+001 -7.616359e+000 -3.254060e-001
    endloop
  endfacet
  facet normal 5.745713e-004 -7.818315e-001 -6.234895e-001
    outer loop
      vertex   1.300000e+001 -7.616359e+000 -3.256828e-001
      vertex   1.300000e+001 -7.605357e+000 -3.394786e-001
      vertex   1.330031e+001 -7.605357e+000 -3.392019e-001
    endloop
  endfacet
  facet normal 4.366893e-004 -8.805955e-001 -4.738685e-001
    outer loop
      vertex   1.300000e+001 -7.605357e+000 -3.394786e-001
      vertex   1.300000e+001 -7.596995e+000 -3.550172e-001
      vertex   1.330033e+001 -7.596995e+000 -3.547404e-001
    endloop
  endfacet
  facet normal 2.847718e-004 -9.510565e-001 -3.090169e-001
    outer loop
      vertex   1.300000e+001 -7.596995e+000 -3.550172e-001
      vertex   1.300000e+001 -7.591543e+000 -3.717991e-001
      vertex   1.330034e+001 -7.591543e+000 -3.715223e-001
    endloop
  endfacet
  facet normal 1.237014e-004 -9.909498e-001 -1.342332e-001
    outer loop
      vertex   1.300000e+001 -7.591543e+000 -3.717991e-001
      vertex   1.300000e+001 -7.589174e+000 -3.892850e-001
      vertex   1.330036e+001 -7.589174e+000 -3.890082e-001
    endloop
  endfacet
  facet normal -4.134477e-005 -9.989931e-001 4.486481e-002
    outer loop
      vertex   1.300000e+001 -7.589174e+000 -3.892850e-001
      vertex   1.300000e+001 -7.589966e+000 -4.069127e-001
      vertex   1.330037e+001 -7.589966e+000 -4.066359e-001
    endloop
  endfacet
  facet normal -2.050621e-004 -9.749279e-001 2.225208e-001
    outer loop
      vertex   1.300000e+001 -7.589966e+000 -4.069127e-001
      vertex   1.300000e+001 -7.593892e+000 -4.241159e-001
      vertex   1.330039e+001 -7.593892e+000 -4.238390e-001
    endloop
  endfacet
  facet normal -3.621886e-004 -9.195278e-001 3.930249e-001
    outer loop
      vertex   1.300000e+001 -7.593892e+000 -4.241159e-001
      vertex   1.300000e+001 -7.600827e+000 -4.403414e-001
      vertex   1.330041e+001 -7.600827e+000 -4.400646e-001
    endloop
  endfacet
  facet normal -5.076741e-004 -8.345733e-001 5.508967e-001
    outer loop
      vertex   1.300000e+001 -7.600827e+000 -4.403414e-001
      vertex   1.300000e+001 -7.610548e+000 -4.550679e-001
      vertex   1.330042e+001 -7.610548e+000 -4.547911e-001
    endloop
  endfacet
  facet normal -6.368425e-004 -7.227949e-001 6.910624e-001
    outer loop
      vertex   1.300000e+001 -7.610548e+000 -4.550679e-001
      vertex   1.300000e+001 -7.622742e+000 -4.678220e-001
      vertex   1.330043e+001 -7.622742e+000 -4.675452e-001
    endloop
  endfacet
  facet normal -7.455422e-004 -5.877853e-001 8.090167e-001
    outer loop
      vertex   1.300000e+001 -7.622742e+000 -4.678220e-001
      vertex   1.300000e+001 -7.637018e+000 -4.781938e-001
      vertex   1.330044e+001 -7.637018e+000 -4.779169e-001
    endloop
  endfacet
  facet normal 1.000000e+000 -3.552714e-015 0.000000e+000
    outer loop
      vertex   1.221260e+001 -8.187500e+000 -2.622574e-016
      vertex   1.221260e+001 -8.187500e+000 -7.874016e-001
      vertex   1.221260e+001 -7.187500e+000 -1.748383e-016
    endloop
  endfacet
  facet normal 1.000000e+000 -3.552714e-015 0.000000e+000
    outer loop
      vertex   1.221260e+001 -7.187500e+000 -1.748383e-016
      vertex   1.221260e+001 -8.187500e+000 -7.874016e-001
      vertex   1.221260e+001 -7.187500e+000 -7.874016e-001
    endloop
  endfacet
  facet normal -8.072480e-001 2.845515e-015 5.902124e-001
    outer loop
      vertex   1.163690e+001 -8.187500e+000 -7.874016e-001
      vertex   1.221260e+001 -8.187500e+000 -2.622574e-016
      vertex   1.163690e+001 -7.187500e+000 -7.874016e-001
    endloop
  endfacet
  facet normal -8.072480e-001 2.816325e-015 5.902124e-001
    outer loop
      vertex   1.163690e+001 -7.187500e+000 -7.874016e-001
      vertex   1.221260e+001 -8.187500e+000 -2.622574e-016
      vertex   1.221260e+001 -7.187500e+000 -1.748383e-016
    endloop
  endfacet
  facet normal -9.999996e-001 3.552739e-015 -9.215408e-004
    outer loop
      vertex   1.163760e+001 -8.187500e+000 -1.549115e+000
      vertex   1.163690e+001 -8.187500e+000 -7.874016e-001
      vertex   1.163760e+001 -7.187500e+000 -1.549115e+000
    endloop
  endfacet
  facet normal -9.999996e-001 3.552712e-015 -9.215408e-004
    outer loop
      vertex   1.163760e+001 -7.187500e+000 -1.549115e+000
      vertex   1.163690e+001 -8.187500e+000 -7.874016e-001
      vertex   1.163690e+001 -7.187500e+000 -7.874016e-001
    endloop
  endfacet
  facet normal -4.149959e-001 1.474362e-015 -9.098233e-001
    outer loop
      vertex   1.178747e+001 -7.187500e+000 -1.549046e+000
      vertex   1.178747e+001 -8.187500e+000 -1.549046e+000
      vertex   1.176814e+001 -7.687500e+000 -1.540226e+000
    endloop
  endfacet
  facet normal -2.850066e-001 1.423142e-004 -9.585255e-001
    outer loop
      vertex   1.176716e+001 -7.187500e+000 -1.539861e+000
      vertex   1.176814e+001 -7.687500e+000 -1.540226e+000
      vertex   1.174660e+001 -7.687500e+000 -1.533822e+000
    endloop
  endfacet
  facet normal -1.456933e-001 1.195580e-004 -9.893298e-001
    outer loop
      vertex   1.174575e+001 -7.187500e+000 -1.533637e+000
      vertex   1.174660e+001 -7.687500e+000 -1.533822e+000
      vertex   1.172437e+001 -7.687500e+000 -1.530549e+000
    endloop
  endfacet
  facet normal -3.414000e-003 9.641659e-005 -9.999942e-001
    outer loop
      vertex   1.172367e+001 -7.187500e+000 -1.530498e+000
      vertex   1.172437e+001 -7.687500e+000 -1.530549e+000
      vertex   1.170190e+001 -7.687500e+000 -1.530472e+000
    endloop
  endfacet
  facet normal 1.389348e-001 7.289007e-005 -9.903015e-001
    outer loop
      vertex   1.170138e+001 -7.187500e+000 -1.530508e+000
      vertex   1.170190e+001 -7.687500e+000 -1.530472e+000
      vertex   1.167965e+001 -7.687500e+000 -1.533594e+000
    endloop
  endfacet
  facet normal 2.789868e-001 4.936349e-005 -9.602949e-001
    outer loop
      vertex   1.167931e+001 -7.187500e+000 -1.533667e+000
      vertex   1.167965e+001 -7.687500e+000 -1.533594e+000
      vertex   1.165791e+001 -7.687500e+000 -1.539911e+000
    endloop
  endfacet
  facet normal 4.128113e-001 0.000000e+000 -9.108166e-001
    outer loop
      vertex   1.165791e+001 -7.187500e+000 -1.539911e+000
      vertex   1.165791e+001 -7.687500e+000 -1.539911e+000
      vertex   1.163760e+001 -7.187500e+000 -1.549115e+000
    endloop
  endfacet
  facet normal 2.800497e-001 0.000000e+000 -9.599855e-001
    outer loop
      vertex   1.165791e+001 -7.187500e+000 -1.539911e+000
      vertex   1.167931e+001 -7.187500e+000 -1.533667e+000
      vertex   1.165791e+001 -7.687500e+000 -1.539911e+000
    endloop
  endfacet
  facet normal -2.791651e-001 1.185952e-004 -9.602431e-001
    outer loop
      vertex   1.174575e+001 -8.187500e+000 -1.533637e+000
      vertex   1.174660e+001 -7.687500e+000 -1.533822e+000
      vertex   1.176716e+001 -8.187500e+000 -1.539861e+000
    endloop
  endfacet
  facet normal -1.456933e-001 -1.195580e-004 -9.893298e-001
    outer loop
      vertex   1.174575e+001 -8.187500e+000 -1.533637e+000
      vertex   1.172437e+001 -7.687500e+000 -1.530549e+000
      vertex   1.174660e+001 -7.687500e+000 -1.533822e+000
    endloop
  endfacet
  facet normal -1.407629e-001 9.564642e-005 -9.900433e-001
    outer loop
      vertex   1.174575e+001 -8.187500e+000 -1.533637e+000
      vertex   1.172367e+001 -8.187500e+000 -1.530498e+000
      vertex   1.172437e+001 -7.687500e+000 -1.530549e+000
    endloop
  endfacet
  facet normal -3.414000e-003 -9.641659e-005 -9.999942e-001
    outer loop
      vertex   1.172437e+001 -7.687500e+000 -1.530549e+000
      vertex   1.172367e+001 -8.187500e+000 -1.530498e+000
      vertex   1.170190e+001 -7.687500e+000 -1.530472e+000
    endloop
  endfacet
  facet normal 4.606555e-004 7.231247e-005 -9.999999e-001
    outer loop
      vertex   1.170190e+001 -7.687500e+000 -1.530472e+000
      vertex   1.172367e+001 -8.187500e+000 -1.530498e+000
      vertex   1.170138e+001 -8.187500e+000 -1.530508e+000
    endloop
  endfacet
  facet normal 1.416750e-001 4.859339e-005 -9.899132e-001
    outer loop
      vertex   1.167965e+001 -7.687500e+000 -1.533594e+000
      vertex   1.170138e+001 -8.187500e+000 -1.530508e+000
      vertex   1.167931e+001 -8.187500e+000 -1.533667e+000
    endloop
  endfacet
  facet normal 2.800497e-001 -1.991380e-015 -9.599855e-001
    outer loop
      vertex   1.165791e+001 -7.687500e+000 -1.539911e+000
      vertex   1.167931e+001 -8.187500e+000 -1.533667e+000
      vertex   1.165791e+001 -8.187500e+000 -1.539911e+000
    endloop
  endfacet
  facet normal 4.128113e-001 -2.933201e-015 -9.108166e-001
    outer loop
      vertex   1.163760e+001 -8.187500e+000 -1.549115e+000
      vertex   1.165791e+001 -7.687500e+000 -1.539911e+000
      vertex   1.165791e+001 -8.187500e+000 -1.539911e+000
    endloop
  endfacet
  facet normal 4.128113e-001 -1.466600e-015 -9.108166e-001
    outer loop
      vertex   1.163760e+001 -8.187500e+000 -1.549115e+000
      vertex   1.163760e+001 -7.187500e+000 -1.549115e+000
      vertex   1.165791e+001 -7.687500e+000 -1.539911e+000
    endloop
  endfacet
  facet normal 1.389348e-001 -7.289007e-005 -9.903015e-001
    outer loop
      vertex   1.170190e+001 -7.687500e+000 -1.530472e+000
      vertex   1.170138e+001 -8.187500e+000 -1.530508e+000
      vertex   1.167965e+001 -7.687500e+000 -1.533594e+000
    endloop
  endfacet
  facet normal 2.789868e-001 -4.936349e-005 -9.602949e-001
    outer loop
      vertex   1.167965e+001 -7.687500e+000 -1.533594e+000
      vertex   1.167931e+001 -8.187500e+000 -1.533667e+000
      vertex   1.165791e+001 -7.687500e+000 -1.539911e+000
    endloop
  endfacet
  facet normal 1.416750e-001 -4.859339e-005 -9.899132e-001
    outer loop
      vertex   1.167931e+001 -7.187500e+000 -1.533667e+000
      vertex   1.170138e+001 -7.187500e+000 -1.530508e+000
      vertex   1.167965e+001 -7.687500e+000 -1.533594e+000
    endloop
  endfacet
  facet normal 4.606555e-004 -7.231247e-005 -9.999999e-001
    outer loop
      vertex   1.170138e+001 -7.187500e+000 -1.530508e+000
      vertex   1.172367e+001 -7.187500e+000 -1.530498e+000
      vertex   1.170190e+001 -7.687500e+000 -1.530472e+000
    endloop
  endfacet
  facet normal -1.407629e-001 -9.564642e-005 -9.900433e-001
    outer loop
      vertex   1.172367e+001 -7.187500e+000 -1.530498e+000
      vertex   1.174575e+001 -7.187500e+000 -1.533637e+000
      vertex   1.172437e+001 -7.687500e+000 -1.530549e+000
    endloop
  endfacet
  facet normal -2.791651e-001 -1.185952e-004 -9.602431e-001
    outer loop
      vertex   1.174575e+001 -7.187500e+000 -1.533637e+000
      vertex   1.176716e+001 -7.187500e+000 -1.539861e+000
      vertex   1.174660e+001 -7.687500e+000 -1.533822e+000
    endloop
  endfacet
  facet normal -4.119720e-001 -1.411588e-004 -9.111965e-001
    outer loop
      vertex   1.176716e+001 -7.187500e+000 -1.539861e+000
      vertex   1.178747e+001 -7.187500e+000 -1.549046e+000
      vertex   1.176814e+001 -7.687500e+000 -1.540226e+000
    endloop
  endfacet
  facet normal -2.850066e-001 -1.423142e-004 -9.585255e-001
    outer loop
      vertex   1.176716e+001 -8.187500e+000 -1.539861e+000
      vertex   1.174660e+001 -7.687500e+000 -1.533822e+000
      vertex   1.176814e+001 -7.687500e+000 -1.540226e+000
    endloop
  endfacet
  facet normal -4.119720e-001 1.411588e-004 -9.111965e-001
    outer loop
      vertex   1.178747e+001 -8.187500e+000 -1.549046e+000
      vertex   1.176716e+001 -8.187500e+000 -1.539861e+000
      vertex   1.176814e+001 -7.687500e+000 -1.540226e+000
    endloop
  endfacet
  facet normal 9.999996e-001 -5.329101e-015 9.215408e-004
    outer loop
      vertex   1.178718e+001 -8.187500e+000 -1.237392e+000
      vertex   1.178747e+001 -8.187500e+000 -1.549046e+000
      vertex   1.178718e+001 -7.187500e+000 -1.237392e+000
    endloop
  endfacet
  facet normal 9.999996e-001 -3.552712e-015 9.215408e-004
    outer loop
      vertex   1.178718e+001 -7.187500e+000 -1.237392e+000
      vertex   1.178747e+001 -8.187500e+000 -1.549046e+000
      vertex   1.178747e+001 -7.187500e+000 -1.549046e+000
    endloop
  endfacet
  facet normal 5.066322e-001 -2.694266e-015 -8.621623e-001
    outer loop
      vertex   1.221351e+001 -8.187500e+000 -9.868709e-001
      vertex   1.178718e+001 -8.187500e+000 -1.237392e+000
      vertex   1.221351e+001 -7.187500e+000 -9.868709e-001
    endloop
  endfacet
  facet normal 5.066322e-001 -2.699879e-015 -8.621623e-001
    outer loop
      vertex   1.221351e+001 -7.187500e+000 -9.868709e-001
      vertex   1.178718e+001 -8.187500e+000 -1.237392e+000
      vertex   1.178718e+001 -7.187500e+000 -1.237392e+000
    endloop
  endfacet
  facet normal 9.215408e-004 -6.381172e-018 -9.999996e-001
    outer loop
      vertex   1.330091e+001 -8.187500e+000 -9.858689e-001
      vertex   1.221351e+001 -8.187500e+000 -9.868709e-001
      vertex   1.330091e+001 -7.187500e+000 -9.858689e-001
    endloop
  endfacet
  facet normal 9.215408e-004 -4.910956e-018 -9.999996e-001
    outer loop
      vertex   1.330091e+001 -7.187500e+000 -9.858689e-001
      vertex   1.221351e+001 -8.187500e+000 -9.868709e-001
      vertex   1.221351e+001 -7.187500e+000 -9.868709e-001
    endloop
  endfacet
  facet normal 9.999996e-001 -1.359742e-013 9.215408e-004
    outer loop
      vertex   1.330045e+001 -7.705074e+000 -4.902674e-001
      vertex   1.330091e+001 -8.187500e+000 -9.858689e-001
      vertex   1.330045e+001 -7.687500e+000 -4.918491e-001
    endloop
  endfacet
  facet normal 9.999996e-001 -4.424446e-014 9.215408e-004
    outer loop
      vertex   1.330045e+001 -7.705074e+000 -4.902674e-001
      vertex   1.330045e+001 -7.722084e+000 -4.855731e-001
      vertex   1.330091e+001 -8.187500e+000 -9.858689e-001
    endloop
  endfacet
  facet normal 9.999996e-001 1.066254e-013 9.215408e-004
    outer loop
      vertex   1.330091e+001 -8.187500e+000 -9.858689e-001
      vertex   1.330045e+001 -7.722084e+000 -4.855731e-001
      vertex   1.330044e+001 -7.737982e+000 -4.779169e-001
    endloop
  endfacet
  facet normal 9.999996e-001 -3.320335e-014 9.215408e-004
    outer loop
      vertex   1.330043e+001 -7.752258e+000 -4.675452e-001
      vertex   1.330091e+001 -8.187500e+000 -9.858689e-001
      vertex   1.330044e+001 -7.737982e+000 -4.779169e-001
    endloop
  endfacet
  facet normal 9.999996e-001 -2.838799e-014 9.215408e-004
    outer loop
      vertex   1.330043e+001 -7.752258e+000 -4.675452e-001
      vertex   1.330042e+001 -7.764452e+000 -4.547911e-001
      vertex   1.330091e+001 -8.187500e+000 -9.858689e-001
    endloop
  endfacet
  facet normal 9.999996e-001 1.327268e-014 9.215408e-004
    outer loop
      vertex   1.330091e+001 -8.187500e+000 -9.858689e-001
      vertex   1.330042e+001 -7.764452e+000 -4.547911e-001
      vertex   1.330041e+001 -7.774173e+000 -4.400646e-001
    endloop
  endfacet
  facet normal 9.999996e-001 1.151198e-014 9.215408e-004
    outer loop
      vertex   1.330039e+001 -7.781108e+000 -4.238390e-001
      vertex   1.330091e+001 -8.187500e+000 -9.858689e-001
      vertex   1.330041e+001 -7.774173e+000 -4.400646e-001
    endloop
  endfacet
  facet normal 9.999996e-001 -1.186438e-013 9.215408e-004
    outer loop
      vertex   1.330039e+001 -7.781108e+000 -4.238390e-001
      vertex   1.330037e+001 -7.785034e+000 -4.066359e-001
      vertex   1.330091e+001 -8.187500e+000 -9.858689e-001
    endloop
  endfacet
  facet normal 9.999996e-001 -5.981552e-015 9.215408e-004
    outer loop
      vertex   1.330091e+001 -8.187500e+000 -9.858689e-001
      vertex   1.330037e+001 -7.785034e+000 -4.066359e-001
      vertex   1.329993e+001 -8.187500e+000 7.098711e-002
    endloop
  endfacet
  facet normal 9.999996e-001 -1.014396e-013 9.215408e-004
    outer loop
      vertex   1.329993e+001 -8.187500e+000 7.098711e-002
      vertex   1.330037e+001 -7.785034e+000 -4.066359e-001
      vertex   1.330036e+001 -7.785826e+000 -3.890082e-001
    endloop
  endfacet
  facet normal 9.999996e-001 -2.608556e-014 9.215408e-004
    outer loop
      vertex   1.330034e+001 -7.783457e+000 -3.715223e-001
      vertex   1.329993e+001 -8.187500e+000 7.098711e-002
      vertex   1.330036e+001 -7.785826e+000 -3.890082e-001
    endloop
  endfacet
  facet normal 9.999996e-001 7.946609e-014 9.215408e-004
    outer loop
      vertex   1.330034e+001 -7.783457e+000 -3.715223e-001
      vertex   1.330033e+001 -7.778005e+000 -3.547404e-001
      vertex   1.329993e+001 -8.187500e+000 7.098711e-002
    endloop
  endfacet
  facet normal 9.999996e-001 -7.708215e-014 9.215408e-004
    outer loop
      vertex   1.329993e+001 -8.187500e+000 7.098711e-002
      vertex   1.330033e+001 -7.778005e+000 -3.547404e-001
      vertex   1.330031e+001 -7.769643e+000 -3.392019e-001
    endloop
  endfacet
  facet normal 9.999996e-001 5.475863e-014 9.215408e-004
    outer loop
      vertex   1.330030e+001 -7.758641e+000 -3.254060e-001
      vertex   1.329993e+001 -8.187500e+000 7.098711e-002
      vertex   1.330031e+001 -7.769643e+000 -3.392019e-001
    endloop
  endfacet
  facet normal 9.999996e-001 4.255895e-014 9.215408e-004
    outer loop
      vertex   1.330030e+001 -7.758641e+000 -3.254060e-001
      vertex   1.330029e+001 -7.745353e+000 -3.137964e-001
      vertex   1.329993e+001 -8.187500e+000 7.098711e-002
    endloop
  endfacet
  facet normal 9.999996e-001 -7.123904e-014 9.215408e-004
    outer loop
      vertex   1.329993e+001 -8.187500e+000 7.098711e-002
      vertex   1.330029e+001 -7.745353e+000 -3.137964e-001
      vertex   1.330028e+001 -7.730205e+000 -3.047460e-001
    endloop
  endfacet
  facet normal 9.999996e-001 -1.207391e-014 9.215408e-004
    outer loop
      vertex   1.330028e+001 -7.713685e+000 -2.985458e-001
      vertex   1.329993e+001 -8.187500e+000 7.098711e-002
      vertex   1.330028e+001 -7.730205e+000 -3.047460e-001
    endloop
  endfacet
  facet normal 9.999996e-001 7.544022e-014 9.215408e-004
    outer loop
      vertex   1.330028e+001 -7.713685e+000 -2.985458e-001
      vertex   1.330027e+001 -7.696323e+000 -2.953951e-001
      vertex   1.329993e+001 -8.187500e+000 7.098711e-002
    endloop
  endfacet
  facet normal 9.999996e-001 -0.000000e+000 9.215408e-004
    outer loop
      vertex   1.329993e+001 -8.187500e+000 7.098711e-002
      vertex   1.330027e+001 -7.696323e+000 -2.953951e-001
      vertex   1.330027e+001 -7.678677e+000 -2.953951e-001
    endloop
  endfacet
  facet normal 9.999996e-001 -7.685557e-014 9.215408e-004
    outer loop
      vertex   1.329993e+001 -7.187500e+000 7.098711e-002
      vertex   1.330027e+001 -7.678677e+000 -2.953951e-001
      vertex   1.330028e+001 -7.661315e+000 -2.985458e-001
    endloop
  endfacet
  facet normal 9.999996e-001 9.639944e-015 9.215408e-004
    outer loop
      vertex   1.330028e+001 -7.644795e+000 -3.047460e-001
      vertex   1.329993e+001 -7.187500e+000 7.098711e-002
      vertex   1.330028e+001 -7.661315e+000 -2.985458e-001
    endloop
  endfacet
  facet normal 9.999996e-001 6.796813e-014 9.215408e-004
    outer loop
      vertex   1.330028e+001 -7.644795e+000 -3.047460e-001
      vertex   1.330029e+001 -7.629647e+000 -3.137964e-001
      vertex   1.329993e+001 -7.187500e+000 7.098711e-002
    endloop
  endfacet
  facet normal 9.999996e-001 -4.658442e-014 9.215408e-004
    outer loop
      vertex   1.329993e+001 -7.187500e+000 7.098711e-002
      vertex   1.330029e+001 -7.629647e+000 -3.137964e-001
      vertex   1.330030e+001 -7.616359e+000 -3.254060e-001
    endloop
  endfacet
  facet normal 9.999996e-001 -5.952690e-014 9.215408e-004
    outer loop
      vertex   1.330031e+001 -7.605357e+000 -3.392019e-001
      vertex   1.329993e+001 -7.187500e+000 7.098711e-002
      vertex   1.330030e+001 -7.616359e+000 -3.254060e-001
    endloop
  endfacet
  facet normal 9.999996e-001 7.151873e-014 9.215408e-004
    outer loop
      vertex   1.330031e+001 -7.605357e+000 -3.392019e-001
      vertex   1.330033e+001 -7.596995e+000 -3.547404e-001
      vertex   1.329993e+001 -7.187500e+000 7.098711e-002
    endloop
  endfacet
  facet normal 9.999996e-001 -8.595130e-014 9.215408e-004
    outer loop
      vertex   1.329993e+001 -7.187500e+000 7.098711e-002
      vertex   1.330033e+001 -7.596995e+000 -3.547404e-001
      vertex   1.330034e+001 -7.591543e+000 -3.715223e-001
    endloop
  endfacet
  facet normal 9.999996e-001 1.842493e-014 9.215408e-004
    outer loop
      vertex   1.330036e+001 -7.589174e+000 -3.890082e-001
      vertex   1.329993e+001 -7.187500e+000 7.098711e-002
      vertex   1.330034e+001 -7.591543e+000 -3.715223e-001
    endloop
  endfacet
  facet normal 9.999996e-001 9.211507e-014 9.215408e-004
    outer loop
      vertex   1.330036e+001 -7.589174e+000 -3.890082e-001
      vertex   1.330037e+001 -7.589966e+000 -4.066359e-001
      vertex   1.329993e+001 -7.187500e+000 7.098711e-002
    endloop
  endfacet
  facet normal 9.999996e-001 -6.835203e-015 9.215408e-004
    outer loop
      vertex   1.329993e+001 -7.187500e+000 7.098711e-002
      vertex   1.330037e+001 -7.589966e+000 -4.066359e-001
      vertex   1.330091e+001 -7.187500e+000 -9.858689e-001
    endloop
  endfacet
  facet normal 9.999996e-001 1.053545e-013 9.215408e-004
    outer loop
      vertex   1.330091e+001 -7.187500e+000 -9.858689e-001
      vertex   1.330037e+001 -7.589966e+000 -4.066359e-001
      vertex   1.330039e+001 -7.593892e+000 -4.238390e-001
    endloop
  endfacet
  facet normal 9.999996e-001 -2.250209e-014 9.215408e-004
    outer loop
      vertex   1.330041e+001 -7.600827e+000 -4.400646e-001
      vertex   1.330091e+001 -7.187500e+000 -9.858689e-001
      vertex   1.330039e+001 -7.593892e+000 -4.238390e-001
    endloop
  endfacet
  facet normal 9.999996e-001 -2.245747e-014 9.215408e-004
    outer loop
      vertex   1.330041e+001 -7.600827e+000 -4.400646e-001
      vertex   1.330042e+001 -7.610548e+000 -4.547911e-001
      vertex   1.330091e+001 -7.187500e+000 -9.858689e-001
    endloop
  endfacet
  facet normal 9.999996e-001 2.075441e-014 9.215408e-004
    outer loop
      vertex   1.330091e+001 -7.187500e+000 -9.858689e-001
      vertex   1.330042e+001 -7.610548e+000 -4.547911e-001
      vertex   1.330043e+001 -7.622742e+000 -4.675452e-001
    endloop
  endfacet
  facet normal 9.999996e-001 2.701726e-014 9.215408e-004
    outer loop
      vertex   1.330044e+001 -7.637018e+000 -4.779169e-001
      vertex   1.330091e+001 -7.187500e+000 -9.858689e-001
      vertex   1.330043e+001 -7.622742e+000 -4.675452e-001
    endloop
  endfacet
  facet normal 9.999996e-001 -1.113489e-013 9.215408e-004
    outer loop
      vertex   1.330044e+001 -7.637018e+000 -4.779169e-001
      vertex   1.330045e+001 -7.652916e+000 -4.855731e-001
      vertex   1.330091e+001 -7.187500e+000 -9.858689e-001
    endloop
  endfacet
  facet normal 9.999996e-001 4.112559e-014 9.215408e-004
    outer loop
      vertex   1.330091e+001 -7.187500e+000 -9.858689e-001
      vertex   1.330045e+001 -7.652916e+000 -4.855731e-001
      vertex   1.330045e+001 -7.669926e+000 -4.902674e-001
    endloop
  endfacet
  facet normal 9.999996e-001 1.347868e-013 9.215408e-004
    outer loop
      vertex   1.330045e+001 -7.687500e+000 -4.918491e-001
      vertex   1.330091e+001 -7.187500e+000 -9.858689e-001
      vertex   1.330045e+001 -7.669926e+000 -4.902674e-001
    endloop
  endfacet
  facet normal 9.999996e-001 -7.105424e-015 9.215408e-004
    outer loop
      vertex   1.330045e+001 -7.687500e+000 -4.918491e-001
      vertex   1.330091e+001 -8.187500e+000 -9.858689e-001
      vertex   1.330091e+001 -7.187500e+000 -9.858689e-001
    endloop
  endfacet
  facet normal 9.999996e-001 -3.552753e-015 9.215408e-004
    outer loop
      vertex   1.329993e+001 -8.187500e+000 7.098711e-002
      vertex   1.330027e+001 -7.678677e+000 -2.953951e-001
      vertex   1.329993e+001 -7.187500e+000 7.098711e-002
    endloop
  endfacet
  facet normal -1.000000e+000 9.396778e-016 -1.044067e-014
    outer loop
      vertex   1.300000e+001 -7.669926e+000 -4.905443e-001
      vertex   1.300000e+001 -7.187500e+000 -7.874016e-001
      vertex   1.300000e+001 -7.687500e+000 -4.921260e-001
    endloop
  endfacet
  facet normal -1.000000e+000 2.280211e-015 -8.262157e-015
    outer loop
      vertex   1.300000e+001 -7.669926e+000 -4.905443e-001
      vertex   1.300000e+001 -7.652916e+000 -4.858499e-001
      vertex   1.300000e+001 -7.187500e+000 -7.874016e-001
    endloop
  endfacet
  facet normal -1.000000e+000 3.254611e-015 -6.758266e-015
    outer loop
      vertex   1.300000e+001 -7.187500e+000 -7.874016e-001
      vertex   1.300000e+001 -7.652916e+000 -4.858499e-001
      vertex   1.300000e+001 -7.637018e+000 -4.781938e-001
    endloop
  endfacet
  facet normal -1.000000e+000 4.059754e-015 -5.587770e-015
    outer loop
      vertex   1.300000e+001 -7.622742e+000 -4.678220e-001
      vertex   1.300000e+001 -7.187500e+000 -7.874016e-001
      vertex   1.300000e+001 -7.637018e+000 -4.781938e-001
    endloop
  endfacet
  facet normal -1.000000e+000 4.795835e-015 -4.585286e-015
    outer loop
      vertex   1.300000e+001 -7.622742e+000 -4.678220e-001
      vertex   1.300000e+001 -7.610548e+000 -4.550679e-001
      vertex   1.300000e+001 -7.187500e+000 -7.874016e-001
    endloop
  endfacet
  facet normal -1.000000e+000 5.530208e-015 -3.650457e-015
    outer loop
      vertex   1.300000e+001 -7.187500e+000 -7.874016e-001
      vertex   1.300000e+001 -7.610548e+000 -4.550679e-001
      vertex   1.300000e+001 -7.600827e+000 -4.403414e-001
    endloop
  endfacet
  facet normal -1.000000e+000 6.325294e-015 -2.703559e-015
    outer loop
      vertex   1.300000e+001 -7.593892e+000 -4.241159e-001
      vertex   1.300000e+001 -7.187500e+000 -7.874016e-001
      vertex   1.300000e+001 -7.600827e+000 -4.403414e-001
    endloop
  endfacet
  facet normal -1.000000e+000 7.260666e-015 -1.657199e-015
    outer loop
      vertex   1.300000e+001 -7.593892e+000 -4.241159e-001
      vertex   1.300000e+001 -7.589966e+000 -4.069127e-001
      vertex   1.300000e+001 -7.187500e+000 -7.874016e-001
    endloop
  endfacet
  facet normal -1.000000e+000 8.467847e-015 -3.802913e-016
    outer loop
      vertex   1.300000e+001 -7.187500e+000 -7.874016e-001
      vertex   1.300000e+001 -7.589966e+000 -4.069127e-001
      vertex   1.300000e+001 -7.589174e+000 -3.892850e-001
    endloop
  endfacet
  facet normal -1.000000e+000 7.818367e-015 1.059069e-015
    outer loop
      vertex   1.300000e+001 -7.187500e+000 -1.748383e-016
      vertex   1.300000e+001 -7.589174e+000 -3.892850e-001
      vertex   1.300000e+001 -7.591543e+000 -3.717991e-001
    endloop
  endfacet
  facet normal -1.000000e+000 6.769042e-015 2.199394e-015
    outer loop
      vertex   1.300000e+001 -7.596995e+000 -3.550172e-001
      vertex   1.300000e+001 -7.187500e+000 -1.748383e-016
      vertex   1.300000e+001 -7.591543e+000 -3.717991e-001
    endloop
  endfacet
  facet normal -1.000000e+000 5.915884e-015 3.183471e-015
    outer loop
      vertex   1.300000e+001 -7.596995e+000 -3.550172e-001
      vertex   1.300000e+001 -7.605357e+000 -3.394786e-001
      vertex   1.300000e+001 -7.187500e+000 -1.748383e-016
    endloop
  endfacet
  facet normal -1.000000e+000 5.159463e-015 4.114533e-015
    outer loop
      vertex   1.300000e+001 -7.187500e+000 -1.748383e-016
      vertex   1.300000e+001 -7.605357e+000 -3.394786e-001
      vertex   1.300000e+001 -7.616359e+000 -3.256828e-001
    endloop
  endfacet
  facet normal -1.000000e+000 4.431848e-015 5.072656e-015
    outer loop
      vertex   1.300000e+001 -7.629647e+000 -3.140731e-001
      vertex   1.300000e+001 -7.187500e+000 -1.748383e-016
      vertex   1.300000e+001 -7.616359e+000 -3.256828e-001
    endloop
  endfacet
  facet normal -1.000000e+000 3.670854e-015 6.143972e-015
    outer loop
      vertex   1.300000e+001 -7.629647e+000 -3.140731e-001
      vertex   1.300000e+001 -7.644795e+000 -3.050227e-001
      vertex   1.300000e+001 -7.187500e+000 -1.748383e-016
    endloop
  endfacet
  facet normal -1.000000e+000 2.797358e-015 7.453531e-015
    outer loop
      vertex   1.300000e+001 -7.187500e+000 -1.748383e-016
      vertex   1.300000e+001 -7.644795e+000 -3.050227e-001
      vertex   1.300000e+001 -7.661315e+000 -2.988225e-001
    endloop
  endfacet
  facet normal -1.000000e+000 1.675443e-015 9.232448e-015
    outer loop
      vertex   1.300000e+001 -7.678677e+000 -2.956718e-001
      vertex   1.300000e+001 -7.187500e+000 -1.748383e-016
      vertex   1.300000e+001 -7.661315e+000 -2.988225e-001
    endloop
  endfacet
  facet normal -1.000000e+000 7.105427e-015 2.120240e-016
    outer loop
      vertex   1.300000e+001 -7.678677e+000 -2.956718e-001
      vertex   1.300000e+001 -8.187500e+000 -8.741914e-017
      vertex   1.300000e+001 -7.187500e+000 -1.748383e-016
    endloop
  endfacet
  facet normal -1.000000e+000 -0.000000e+000 -1.201573e-014
    outer loop
      vertex   1.300000e+001 -7.678677e+000 -2.956718e-001
      vertex   1.300000e+001 -7.696323e+000 -2.956718e-001
      vertex   1.300000e+001 -8.187500e+000 -8.741914e-017
    endloop
  endfacet
  facet normal -1.000000e+000 1.675443e-015 -9.232448e-015
    outer loop
      vertex   1.300000e+001 -8.187500e+000 -8.741914e-017
      vertex   1.300000e+001 -7.696323e+000 -2.956718e-001
      vertex   1.300000e+001 -7.713685e+000 -2.988225e-001
    endloop
  endfacet
  facet normal -1.000000e+000 2.797358e-015 -7.453531e-015
    outer loop
      vertex   1.300000e+001 -7.730205e+000 -3.050227e-001
      vertex   1.300000e+001 -8.187500e+000 -8.741914e-017
      vertex   1.300000e+001 -7.713685e+000 -2.988225e-001
    endloop
  endfacet
  facet normal -1.000000e+000 3.670854e-015 -6.143972e-015
    outer loop
      vertex   1.300000e+001 -7.730205e+000 -3.050227e-001
      vertex   1.300000e+001 -7.745353e+000 -3.140731e-001
      vertex   1.300000e+001 -8.187500e+000 -8.741914e-017
    endloop
  endfacet
  facet normal -1.000000e+000 4.431848e-015 -5.072656e-015
    outer loop
      vertex   1.300000e+001 -8.187500e+000 -8.741914e-017
      vertex   1.300000e+001 -7.745353e+000 -3.140731e-001
      vertex   1.300000e+001 -7.758641e+000 -3.256828e-001
    endloop
  endfacet
  facet normal -1.000000e+000 5.159463e-015 -4.114533e-015
    outer loop
      vertex   1.300000e+001 -7.769643e+000 -3.394786e-001
      vertex   1.300000e+001 -8.187500e+000 -8.741914e-017
      vertex   1.300000e+001 -7.758641e+000 -3.256828e-001
    endloop
  endfacet
  facet normal -1.000000e+000 5.915884e-015 -3.183471e-015
    outer loop
      vertex   1.300000e+001 -7.769643e+000 -3.394786e-001
      vertex   1.300000e+001 -7.778005e+000 -3.550172e-001
      vertex   1.300000e+001 -8.187500e+000 -8.741914e-017
    endloop
  endfacet
  facet normal -1.000000e+000 6.769042e-015 -2.199394e-015
    outer loop
      vertex   1.300000e+001 -8.187500e+000 -8.741914e-017
      vertex   1.300000e+001 -7.778005e+000 -3.550172e-001
      vertex   1.300000e+001 -7.783457e+000 -3.717991e-001
    endloop
  endfacet
  facet normal -1.000000e+000 7.818367e-015 -1.059069e-015
    outer loop
      vertex   1.300000e+001 -7.785826e+000 -3.892850e-001
      vertex   1.300000e+001 -8.187500e+000 -8.741914e-017
      vertex   1.300000e+001 -7.783457e+000 -3.717991e-001
    endloop
  endfacet
  facet normal -1.000000e+000 4.471988e-015 -4.511946e-015
    outer loop
      vertex   1.300000e+001 -7.785826e+000 -3.892850e-001
      vertex   1.300000e+001 -8.187500e+000 -7.874016e-001
      vertex   1.300000e+001 -8.187500e+000 -8.741914e-017
    endloop
  endfacet
  facet normal -1.000000e+000 0.000000e+000 -0.000000e+000
    outer loop
      vertex   1.300000e+001 -7.785826e+000 -3.892850e-001
      vertex   1.300000e+001 -7.785034e+000 -4.069127e-001
      vertex   1.300000e+001 -8.187500e+000 -7.874016e-001
    endloop
  endfacet
  facet normal -1.000000e+000 0.000000e+000 0.000000e+000
    outer loop
      vertex   1.300000e+001 -8.187500e+000 -7.874016e-001
      vertex   1.300000e+001 -7.785034e+000 -4.069127e-001
      vertex   1.300000e+001 -7.781108e+000 -4.241159e-001
    endloop
  endfacet
  facet normal -1.000000e+000 -0.000000e+000 0.000000e+000
    outer loop
      vertex   1.300000e+001 -7.774173e+000 -4.403414e-001
      vertex   1.300000e+001 -8.187500e+000 -7.874016e-001
      vertex   1.300000e+001 -7.781108e+000 -4.241159e-001
    endloop
  endfacet
  facet normal -1.000000e+000 0.000000e+000 -0.000000e+000
    outer loop
      vertex   1.300000e+001 -7.774173e+000 -4.403414e-001
      vertex   1.300000e+001 -7.764452e+000 -4.550679e-001
      vertex   1.300000e+001 -8.187500e+000 -7.874016e-001
    endloop
  endfacet
  facet normal -1.000000e+000 0.000000e+000 0.000000e+000
    outer loop
      vertex   1.300000e+001 -8.187500e+000 -7.874016e-001
      vertex   1.300000e+001 -7.764452e+000 -4.550679e-001
      vertex   1.300000e+001 -7.752258e+000 -4.678220e-001
    endloop
  endfacet
  facet normal -1.000000e+000 -0.000000e+000 0.000000e+000
    outer loop
      vertex   1.300000e+001 -7.737982e+000 -4.781938e-001
      vertex   1.300000e+001 -8.187500e+000 -7.874016e-001
      vertex   1.300000e+001 -7.752258e+000 -4.678220e-001
    endloop
  endfacet
  facet normal -1.000000e+000 0.000000e+000 -0.000000e+000
    outer loop
      vertex   1.300000e+001 -7.737982e+000 -4.781938e-001
      vertex   1.300000e+001 -7.722084e+000 -4.858499e-001
      vertex   1.300000e+001 -8.187500e+000 -7.874016e-001
    endloop
  endfacet
  facet normal -1.000000e+000 0.000000e+000 0.000000e+000
    outer loop
      vertex   1.300000e+001 -8.187500e+000 -7.874016e-001
      vertex   1.300000e+001 -7.722084e+000 -4.858499e-001
      vertex   1.300000e+001 -7.705074e+000 -4.905443e-001
    endloop
  endfacet
  facet normal -1.000000e+000 -0.000000e+000 0.000000e+000
    outer loop
      vertex   1.300000e+001 -7.687500e+000 -4.921260e-001
      vertex   1.300000e+001 -8.187500e+000 -7.874016e-001
      vertex   1.300000e+001 -7.705074e+000 -4.905443e-001
    endloop
  endfacet
  facet normal -1.000000e+000 3.552714e-015 -6.015929e-015
    outer loop
      vertex   1.300000e+001 -7.687500e+000 -4.921260e-001
      vertex   1.300000e+001 -7.187500e+000 -7.874016e-001
      vertex   1.300000e+001 -8.187500e+000 -7.874016e-001
    endloop
  endfacet
  facet normal -1.000000e+000 8.844771e-015 0.000000e+000
    outer loop
      vertex   1.300000e+001 -7.187500e+000 -7.874016e-001
      vertex   1.300000e+001 -7.589174e+000 -3.892850e-001
      vertex   1.300000e+001 -7.187500e+000 -1.748383e-016
    endloop
  endfacet
  facet normal -0.000000e+000 -0.000000e+000 1.000000e+000
    outer loop
      vertex   1.221260e+001 -8.187500e+000 -7.874016e-001
      vertex   1.300000e+001 -8.187500e+000 -7.874016e-001
      vertex   1.221260e+001 -7.187500e+000 -7.874016e-001
    endloop
  endfacet
  facet normal -0.000000e+000 0.000000e+000 1.000000e+000
    outer loop
      vertex   1.221260e+001 -7.187500e+000 -7.874016e-001
      vertex   1.300000e+001 -8.187500e+000 -7.874016e-001
      vertex   1.300000e+001 -7.187500e+000 -7.874016e-001
    endloop
  endfacet
  facet normal 8.859415e-015 1.000000e+000 -3.187717e-015
    outer loop
      vertex   1.172550e+001 -7.187500e+000 -8.197773e-001
      vertex   1.163690e+001 -7.187500e+000 -7.874016e-001
      vertex   1.209477e+001 -7.187500e+000 -3.507277e-001
    endloop
  endfacet
  facet normal 1.002759e-014 1.000000e+000 9.240834e-018
    outer loop
      vertex   1.172550e+001 -7.187500e+000 -8.197773e-001
      vertex   1.172577e+001 -7.187500e+000 -1.112384e+000
      vertex   1.163690e+001 -7.187500e+000 -7.874016e-001
    endloop
  endfacet
  facet normal 1.002759e-014 1.000000e+000 9.240834e-018
    outer loop
      vertex   1.163690e+001 -7.187500e+000 -7.874016e-001
      vertex   1.172577e+001 -7.187500e+000 -1.112384e+000
      vertex   1.163760e+001 -7.187500e+000 -1.549115e+000
    endloop
  endfacet
  facet normal 2.933902e-015 1.000000e+000 1.441378e-015
    outer loop
      vertex   1.163760e+001 -7.187500e+000 -1.549115e+000
      vertex   1.172577e+001 -7.187500e+000 -1.112384e+000
      vertex   1.178718e+001 -7.187500e+000 -1.237392e+000
    endloop
  endfacet
  facet normal -0.000000e+000 1.000000e+000 0.000000e+000
    outer loop
      vertex   1.165791e+001 -7.187500e+000 -1.539911e+000
      vertex   1.178718e+001 -7.187500e+000 -1.237392e+000
      vertex   1.167931e+001 -7.187500e+000 -1.533667e+000
    endloop
  endfacet
  facet normal 5.424427e-014 1.000000e+000 -2.318072e-014
    outer loop
      vertex   1.165791e+001 -7.187500e+000 -1.539911e+000
      vertex   1.163760e+001 -7.187500e+000 -1.549115e+000
      vertex   1.178718e+001 -7.187500e+000 -1.237392e+000
    endloop
  endfacet
  facet normal 3.625995e-015 1.000000e+000 1.781392e-015
    outer loop
      vertex   1.172577e+001 -7.187500e+000 -1.112384e+000
      vertex   1.209525e+001 -7.187500e+000 -8.672828e-001
      vertex   1.178718e+001 -7.187500e+000 -1.237392e+000
    endloop
  endfacet
  facet normal 2.635317e-015 1.000000e+000 2.606000e-015
    outer loop
      vertex   1.178718e+001 -7.187500e+000 -1.237392e+000
      vertex   1.209525e+001 -7.187500e+000 -8.672828e-001
      vertex   1.221351e+001 -7.187500e+000 -9.868709e-001
    endloop
  endfacet
  facet normal 0.000000e+000 1.000000e+000 -0.000000e+000
    outer loop
      vertex   1.221351e+001 -7.187500e+000 -9.868709e-001
      vertex   1.209525e+001 -7.187500e+000 -8.672828e-001
      vertex   1.221260e+001 -7.187500e+000 -7.874016e-001
    endloop
  endfacet
  facet normal 3.383960e-015 1.000000e+000 1.542852e-017
    outer loop
      vertex   1.300000e+001 -7.187500e+000 -7.874016e-001
      vertex   1.221351e+001 -7.187500e+000 -9.868709e-001
      vertex   1.221260e+001 -7.187500e+000 -7.874016e-001
    endloop
  endfacet
  facet normal 4.086490e-015 1.000000e+000 -2.754593e-015
    outer loop
      vertex   1.300000e+001 -7.187500e+000 -7.874016e-001
      vertex   1.330091e+001 -7.187500e+000 -9.858689e-001
      vertex   1.221351e+001 -7.187500e+000 -9.868709e-001
    endloop
  endfacet
  facet normal 5.906900e-015 1.000000e+000 5.443452e-018
    outer loop
      vertex   1.300000e+001 -7.187500e+000 -7.874016e-001
      vertex   1.329993e+001 -7.187500e+000 7.098711e-002
      vertex   1.330091e+001 -7.187500e+000 -9.858689e-001
    endloop
  endfacet
  facet normal 5.922478e-015 1.000000e+000 -0.000000e+000
    outer loop
      vertex   1.300000e+001 -7.187500e+000 -7.874016e-001
      vertex   1.300000e+001 -7.187500e+000 -1.748383e-016
      vertex   1.329993e+001 -7.187500e+000 7.098711e-002
    endloop
  endfacet
  facet normal 6.361989e-015 1.000000e+000 -1.857019e-015
    outer loop
      vertex   1.329993e+001 -7.187500e+000 7.098711e-002
      vertex   1.300000e+001 -7.187500e+000 -1.748383e-016
      vertex   1.302065e+001 -7.187500e+000 7.072973e-002
    endloop
  endfacet
  facet normal 0.000000e+000 1.000000e+000 0.000000e+000
    outer loop
      vertex   1.302065e+001 -7.187500e+000 7.072973e-002
      vertex   1.300000e+001 -7.187500e+000 -1.748383e-016
      vertex   1.295000e+001 -7.187500e+000 -4.607704e-005
    endloop
  endfacet
  facet normal -0.000000e+000 1.000000e+000 -0.000000e+000
    outer loop
      vertex   1.209525e+001 -7.187500e+000 -8.672828e-001
      vertex   1.209477e+001 -7.187500e+000 -3.507277e-001
      vertex   1.221260e+001 -7.187500e+000 -7.874016e-001
    endloop
  endfacet
  facet normal 0.000000e+000 1.000000e+000 -0.000000e+000
    outer loop
      vertex   1.221260e+001 -7.187500e+000 -7.874016e-001
      vertex   1.209477e+001 -7.187500e+000 -3.507277e-001
      vertex   1.221260e+001 -7.187500e+000 -1.748383e-016
    endloop
  endfacet
  facet normal 8.562672e-015 1.000000e+000 -2.876565e-015
    outer loop
      vertex   1.221260e+001 -7.187500e+000 -1.748383e-016
      vertex   1.209477e+001 -7.187500e+000 -3.507277e-001
      vertex   1.163690e+001 -7.187500e+000 -7.874016e-001
    endloop
  endfacet
  facet normal 0.000000e+000 1.000000e+000 -0.000000e+000
    outer loop
      vertex   1.178747e+001 -7.187500e+000 -1.549046e+000
      vertex   1.176716e+001 -7.187500e+000 -1.539861e+000
      vertex   1.178718e+001 -7.187500e+000 -1.237392e+000
    endloop
  endfacet
  facet normal 0.000000e+000 1.000000e+000 0.000000e+000
    outer loop
      vertex   1.178718e+001 -7.187500e+000 -1.237392e+000
      vertex   1.176716e+001 -7.187500e+000 -1.539861e+000
      vertex   1.174575e+001 -7.187500e+000 -1.533637e+000
    endloop
  endfacet
  facet normal -0.000000e+000 1.000000e+000 0.000000e+000
    outer loop
      vertex   1.172367e+001 -7.187500e+000 -1.530498e+000
      vertex   1.178718e+001 -7.187500e+000 -1.237392e+000
      vertex   1.174575e+001 -7.187500e+000 -1.533637e+000
    endloop
  endfacet
  facet normal 0.000000e+000 1.000000e+000 -0.000000e+000
    outer loop
      vertex   1.172367e+001 -7.187500e+000 -1.530498e+000
      vertex   1.170138e+001 -7.187500e+000 -1.530508e+000
      vertex   1.178718e+001 -7.187500e+000 -1.237392e+000
    endloop
  endfacet
  facet normal 0.000000e+000 1.000000e+000 0.000000e+000
    outer loop
      vertex   1.178718e+001 -7.187500e+000 -1.237392e+000
      vertex   1.170138e+001 -7.187500e+000 -1.530508e+000
      vertex   1.167931e+001 -7.187500e+000 -1.533667e+000
    endloop
  endfacet
  facet normal 0.000000e+000 -1.000000e+000 0.000000e+000
    outer loop
      vertex   1.172577e+001 -8.187500e+000 -1.112384e+000
      vertex   1.172550e+001 -8.187500e+000 -8.197773e-001
      vertex   1.163690e+001 -8.187500e+000 -7.874016e-001
    endloop
  endfacet
  facet normal 0.000000e+000 -1.000000e+000 0.000000e+000
    outer loop
      vertex   1.163760e+001 -8.187500e+000 -1.549115e+000
      vertex   1.172577e+001 -8.187500e+000 -1.112384e+000
      vertex   1.163690e+001 -8.187500e+000 -7.874016e-001
    endloop
  endfacet
  facet normal 0.000000e+000 -1.000000e+000 0.000000e+000
    outer loop
      vertex   1.163760e+001 -8.187500e+000 -1.549115e+000
      vertex   1.178718e+001 -8.187500e+000 -1.237392e+000
      vertex   1.172577e+001 -8.187500e+000 -1.112384e+000
    endloop
  endfacet
  facet normal 0.000000e+000 -1.000000e+000 0.000000e+000
    outer loop
      vertex   1.163760e+001 -8.187500e+000 -1.549115e+000
      vertex   1.165791e+001 -8.187500e+000 -1.539911e+000
      vertex   1.178718e+001 -8.187500e+000 -1.237392e+000
    endloop
  endfacet
  facet normal 0.000000e+000 -1.000000e+000 -0.000000e+000
    outer loop
      vertex   1.178718e+001 -8.187500e+000 -1.237392e+000
      vertex   1.165791e+001 -8.187500e+000 -1.539911e+000
      vertex   1.167931e+001 -8.187500e+000 -1.533667e+000
    endloop
  endfacet
  facet normal -0.000000e+000 -1.000000e+000 0.000000e+000
    outer loop
      vertex   1.170138e+001 -8.187500e+000 -1.530508e+000
      vertex   1.178718e+001 -8.187500e+000 -1.237392e+000
      vertex   1.167931e+001 -8.187500e+000 -1.533667e+000
    endloop
  endfacet
  facet normal 0.000000e+000 -1.000000e+000 0.000000e+000
    outer loop
      vertex   1.170138e+001 -8.187500e+000 -1.530508e+000
      vertex   1.172367e+001 -8.187500e+000 -1.530498e+000
      vertex   1.178718e+001 -8.187500e+000 -1.237392e+000
    endloop
  endfacet
  facet normal 0.000000e+000 -1.000000e+000 -0.000000e+000
    outer loop
      vertex   1.178718e+001 -8.187500e+000 -1.237392e+000
      vertex   1.172367e+001 -8.187500e+000 -1.530498e+000
      vertex   1.174575e+001 -8.187500e+000 -1.533637e+000
    endloop
  endfacet
  facet normal -0.000000e+000 -1.000000e+000 0.000000e+000
    outer loop
      vertex   1.176716e+001 -8.187500e+000 -1.539861e+000
      vertex   1.178718e+001 -8.187500e+000 -1.237392e+000
      vertex   1.174575e+001 -8.187500e+000 -1.533637e+000
    endloop
  endfacet
  facet normal 0.000000e+000 -1.000000e+000 0.000000e+000
    outer loop
      vertex   1.176716e+001 -8.187500e+000 -1.539861e+000
      vertex   1.178747e+001 -8.187500e+000 -1.549046e+000
      vertex   1.178718e+001 -8.187500e+000 -1.237392e+000
    endloop
  endfacet
  facet normal 0.000000e+000 -1.000000e+000 0.000000e+000
    outer loop
      vertex   1.209525e+001 -8.187500e+000 -8.672828e-001
      vertex   1.221260e+001 -8.187500e+000 -7.874016e-001
      vertex   1.209477e+001 -8.187500e+000 -3.507277e-001
    endloop
  endfacet
  facet normal 0.000000e+000 -1.000000e+000 0.000000e+000
    outer loop
      vertex   1.209525e+001 -8.187500e+000 -8.672828e-001
      vertex   1.221351e+001 -8.187500e+000 -9.868709e-001
      vertex   1.221260e+001 -8.187500e+000 -7.874016e-001
    endloop
  endfacet
  facet normal -2.635317e-015 -1.000000e+000 -2.606000e-015
    outer loop
      vertex   1.209525e+001 -8.187500e+000 -8.672828e-001
      vertex   1.178718e+001 -8.187500e+000 -1.237392e+000
      vertex   1.221351e+001 -8.187500e+000 -9.868709e-001
    endloop
  endfacet
  facet normal -3.625995e-015 -1.000000e+000 -1.781392e-015
    outer loop
      vertex   1.209525e+001 -8.187500e+000 -8.672828e-001
      vertex   1.172577e+001 -8.187500e+000 -1.112384e+000
      vertex   1.178718e+001 -8.187500e+000 -1.237392e+000
    endloop
  endfacet
  facet normal -4.511946e-015 -1.000000e+000 -2.057135e-017
    outer loop
      vertex   1.221260e+001 -8.187500e+000 -7.874016e-001
      vertex   1.221351e+001 -8.187500e+000 -9.868709e-001
      vertex   1.300000e+001 -8.187500e+000 -7.874016e-001
    endloop
  endfacet
  facet normal -4.902141e-015 -1.000000e+000 1.517934e-015
    outer loop
      vertex   1.300000e+001 -8.187500e+000 -7.874016e-001
      vertex   1.221351e+001 -8.187500e+000 -9.868709e-001
      vertex   1.330091e+001 -8.187500e+000 -9.858689e-001
    endloop
  endfacet
  facet normal -5.906900e-015 -1.000000e+000 -5.443452e-018
    outer loop
      vertex   1.329993e+001 -8.187500e+000 7.098711e-002
      vertex   1.300000e+001 -8.187500e+000 -7.874016e-001
      vertex   1.330091e+001 -8.187500e+000 -9.858689e-001
    endloop
  endfacet
  facet normal -5.922478e-015 -1.000000e+000 -2.672190e-029
    outer loop
      vertex   1.329993e+001 -8.187500e+000 7.098711e-002
      vertex   1.300000e+001 -8.187500e+000 -8.741914e-017
      vertex   1.300000e+001 -8.187500e+000 -7.874016e-001
    endloop
  endfacet
  facet normal 2.315047e-017 -1.000000e+000 -2.512147e-014
    outer loop
      vertex   1.329993e+001 -8.187500e+000 7.098711e-002
      vertex   1.302065e+001 -8.187500e+000 7.072973e-002
      vertex   1.300000e+001 -8.187500e+000 -8.741914e-017
    endloop
  endfacet
  facet normal 2.315047e-017 -1.000000e+000 -2.512147e-014
    outer loop
      vertex   1.300000e+001 -8.187500e+000 -8.741914e-017
      vertex   1.302065e+001 -8.187500e+000 7.072973e-002
      vertex   1.295000e+001 -8.187500e+000 -4.607704e-005
    endloop
  endfacet
  facet normal -0.000000e+000 -1.000000e+000 0.000000e+000
    outer loop
      vertex   1.221260e+001 -8.187500e+000 -7.874016e-001
      vertex   1.221260e+001 -8.187500e+000 -2.622574e-016
      vertex   1.209477e+001 -8.187500e+000 -3.507277e-001
    endloop
  endfacet
  facet normal -5.708448e-015 -1.000000e+000 1.917710e-015
    outer loop
      vertex   1.209477e+001 -8.187500e+000 -3.507277e-001
      vertex   1.221260e+001 -8.187500e+000 -2.622574e-016
      vertex   1.163690e+001 -8.187500e+000 -7.874016e-001
    endloop
  endfacet
  facet normal -1.074670e-015 -1.000000e+000 -2.941072e-015
    outer loop
      vertex   1.172550e+001 -8.187500e+000 -8.197773e-001
      vertex   1.209477e+001 -8.187500e+000 -3.507277e-001
      vertex   1.163690e+001 -8.187500e+000 -7.874016e-001
    endloop
  endfacet
endsolid
